<?xml version="1.0" standalone="no"?>
<!DOCTYPE svg PUBLIC "-//W3C//DTD SVG 20010904//EN"
 "http://www.w3.org/TR/2001/REC-SVG-20010904/DTD/svg10.dtd">
<svg version="1.0" xmlns="http://www.w3.org/2000/svg"
 width="1280.000000pt" height="1280.000000pt" viewBox="0 0 1280.000000 1280.000000"
 preserveAspectRatio="xMidYMid meet">

<g transform="translate(0.000000,1280.000000) scale(0.100000,-0.100000)"
fill="#000000" stroke="none">
<path d="M0 6400 l0 -6400 6400 0 6400 0 0 6400 0 6400 -6400 0 -6400 0 0
-6400z m4605 3343 c52 -55 113 -149 140 -218 31 -77 45 -210 27 -255 -9 -21
-11 -22 -11 -6 -1 20 -1 20 -17 0 -15 -18 -15 -18 -9 9 4 19 2 26 -5 22 -5 -3
-10 -15 -10 -26 0 -10 -4 -19 -10 -19 -5 0 -10 7 -10 15 0 8 -4 15 -10 15 -5
0 -10 -9 -10 -20 0 -11 -7 -20 -15 -20 -17 0 -21 -36 -5 -43 6 -3 5 -4 -2 -3
-7 1 -15 13 -16 26 -2 13 -10 30 -18 37 -8 8 -14 23 -14 33 0 10 -5 31 -11 47
-14 38 -29 14 -29 -49 0 -26 -5 -50 -10 -53 -6 -4 -8 -10 -5 -15 3 -4 2 -15
-1 -24 -7 -18 -44 -22 -44 -5 0 6 -8 9 -19 6 -12 -3 -18 1 -17 12 0 9 -5 15
-11 14 -7 -2 -13 5 -14 15 0 14 -2 14 -8 -3 -7 -18 -10 -15 -25 19 -33 79 -11
257 46 370 35 70 89 146 104 146 7 0 25 -12 39 -27z m2453 -94 c174 -25 303
-90 427 -214 92 -93 112 -121 375 -550 52 -85 101 -155 109 -155 7 0 37 13 65
29 28 15 80 44 116 63 36 19 105 56 154 83 83 45 88 46 81 24 -11 -36 -97
-277 -153 -429 -27 -74 -70 -198 -97 -275 -26 -77 -53 -153 -60 -170 -7 -16
-27 -73 -45 -125 -17 -52 -35 -104 -40 -115 -5 -11 -21 -59 -36 -107 -18 -56
-31 -83 -36 -75 -5 7 -6 -1 -2 -17 7 -29 7 -29 -30 -23 -20 3 -36 2 -36 -4 0
-5 3 -9 8 -9 11 0 29 -44 24 -59 -4 -11 -6 -11 -12 0 -7 10 -11 10 -24 -1 -14
-11 -16 -10 -10 4 7 17 8 17 -88 16 -20 0 -39 4 -43 10 -4 6 6 7 26 3 26 -5
30 -3 24 8 -7 12 -6 12 7 1 14 -11 20 -11 38 0 18 11 23 10 36 -6 7 -11 17
-16 21 -13 4 4 1 13 -5 19 -7 7 -12 20 -12 29 0 30 -66 41 -77 13 -4 -11 -13
-14 -30 -9 -33 8 -83 45 -83 62 0 7 -4 13 -10 13 -5 0 -10 -7 -10 -15 0 -8 4
-15 8 -15 13 0 9 -39 -5 -44 -7 -3 -10 1 -6 10 3 7 1 14 -5 14 -6 0 -13 -6
-15 -12 -3 -8 -6 -6 -6 5 -1 23 -18 22 -33 -3 -7 -11 -23 -20 -35 -20 -23 0
-40 17 -28 28 3 3 10 0 15 -8 11 -18 23 -8 14 13 -3 9 -12 13 -20 10 -8 -3
-21 0 -29 7 -23 19 -31 3 -10 -20 16 -18 16 -20 2 -20 -10 0 -17 5 -17 11 0 6
-6 9 -13 6 -8 -3 -20 -1 -28 4 -11 7 -11 9 4 9 9 0 16 3 15 8 -1 4 3 17 10 30
7 12 11 22 8 22 -2 0 -11 3 -20 6 -11 4 -17 -3 -23 -27 -7 -26 -14 -33 -35
-33 -15 -1 -24 2 -22 6 2 3 -1 10 -6 13 -7 5 -5 12 7 21 23 17 12 18 -21 0
-23 -11 -24 -15 -10 -20 9 -4 15 -9 12 -12 -7 -6 -99 16 -115 28 -7 5 -16 7
-21 4 -6 -3 -26 1 -46 9 -20 8 -36 13 -36 11 0 -3 -18 1 -39 9 -22 7 -42 11
-46 7 -3 -3 -3 1 1 11 3 10 1 17 -5 17 -6 0 -11 -5 -11 -11 0 -7 -10 -9 -27
-4 -16 4 -53 13 -83 20 -30 7 -109 27 -175 45 -66 18 -148 38 -182 46 -98 21
-105 27 -52 55 155 83 359 204 359 214 0 6 -19 40 -43 77 -23 37 -73 117 -112
178 -38 61 -88 139 -109 173 -22 34 -94 145 -161 247 -67 102 -130 199 -139
215 -9 17 -29 49 -44 72 -169 265 -156 247 -257 348 -86 86 -162 128 -277 151
-111 23 -189 12 -298 -43 -86 -44 -230 -179 -294 -276 -21 -32 -40 -56 -43
-53 -12 12 155 245 224 313 86 85 183 137 283 151 86 13 1372 4 1468 -9z
m-3198 -370 c190 -30 336 -116 429 -253 42 -62 93 -184 86 -206 -4 -12 -2 -20
5 -20 6 0 8 -5 3 -12 -4 -7 -8 -20 -8 -28 0 -8 -11 -17 -24 -18 -18 -3 -22 0
-18 12 4 10 1 16 -8 16 -8 0 -15 5 -15 10 0 6 -7 10 -15 10 -8 0 -15 7 -15 15
0 9 9 15 23 14 20 0 21 -1 3 -8 -18 -7 -16 -9 12 -19 30 -10 32 -9 32 11 0 18
-2 19 -11 7 -8 -12 -9 -11 -4 6 4 18 0 23 -22 27 -18 3 -34 0 -45 -10 -20 -18
-27 -15 -88 31 -92 71 -121 89 -128 82 -4 -4 0 -13 8 -19 18 -15 82 -93 133
-163 36 -51 42 -83 17 -108 -13 -13 -14 19 0 44 6 11 6 21 1 24 -5 3 -11 -3
-14 -14 -6 -25 -27 -26 -28 -2 0 13 -2 14 -6 2 -4 -8 -14 -22 -23 -30 -9 -8
-15 -21 -13 -27 6 -17 5 -17 -68 18 -127 61 -212 145 -278 277 -36 72 -81 236
-81 298 l0 44 48 0 c26 0 76 -5 112 -11z m595 -79 c3 -5 1 -10 -4 -10 -6 0
-11 5 -11 10 0 6 2 10 4 10 3 0 8 -4 11 -10z m529 -252 c7 -5 5 -8 -6 -8 -13
0 -18 7 -17 28 1 21 2 22 6 7 3 -11 10 -23 17 -27z m16 22 c0 -5 -5 -10 -11
-10 -5 0 -7 5 -4 10 3 6 8 10 11 10 2 0 4 -4 4 -10z m-56 -34 c-3 -8 1 -14 8
-13 7 0 31 -1 53 -3 39 -2 39 -2 10 -10 -28 -7 -29 -8 -5 -10 14 -1 34 -3 45
-5 11 -2 23 1 27 8 5 8 8 7 8 -5 0 -9 -6 -18 -14 -20 -13 -3 -13 -6 -1 -22 14
-18 15 -18 34 5 13 16 19 19 19 9 -2 -40 2 -48 23 -43 17 5 20 2 15 -13 -7
-23 8 -49 22 -40 14 8 52 -15 52 -31 0 -7 -8 -13 -17 -14 -11 0 -13 -2 -5 -6
7 -3 24 3 39 12 22 15 25 15 20 2 -5 -13 -1 -14 26 -6 40 11 38 12 35 -8 -2
-12 3 -17 14 -15 12 2 16 -2 12 -13 -5 -11 1 -15 22 -15 25 -1 26 -2 11 -11
-9 -6 -26 -7 -37 -4 -11 4 -20 2 -20 -4 0 -6 5 -11 10 -11 6 0 10 -8 10 -17 0
-15 1 -15 14 2 8 12 19 16 31 11 17 -6 17 -7 0 -20 -11 -8 -14 -15 -8 -19 6
-4 17 0 24 9 12 14 14 14 20 -3 7 -16 8 -16 8 4 1 24 19 40 31 27 13 -15 21
-64 10 -64 -5 0 -10 14 -10 30 0 17 -4 30 -9 30 -11 0 -9 -35 3 -63 6 -12 15
-16 27 -12 14 5 19 1 19 -14 0 -13 -7 -21 -17 -22 -16 -1 -16 -2 0 -6 13 -3
17 -11 14 -24 -4 -14 0 -19 15 -19 16 0 18 3 9 14 -9 10 -8 15 3 19 17 7 30
-8 21 -23 -3 -5 1 -10 9 -10 9 0 16 7 16 15 0 14 3 13 25 -2 13 -10 23 -22 21
-28 -6 -18 15 -47 30 -41 8 3 14 1 14 -4 0 -5 10 -12 23 -16 12 -4 25 -11 29
-17 3 -6 19 -12 34 -14 21 -3 25 -1 21 11 -4 9 -1 16 6 16 7 0 13 -9 13 -20 0
-13 -7 -20 -18 -20 -10 0 -18 -4 -18 -10 0 -5 6 -10 14 -10 8 0 22 -3 32 -7
14 -5 16 -2 12 15 -4 12 -2 25 3 28 5 3 9 -9 9 -25 0 -17 5 -31 11 -31 5 0 7
-4 4 -10 -3 -5 3 -10 14 -10 12 0 21 -7 21 -15 0 -18 16 -20 26 -4 3 6 1 14
-5 18 -8 5 -9 15 -2 32 l10 24 0 -27 c1 -16 5 -28 9 -28 4 0 15 -13 24 -28 16
-27 16 -28 -13 -41 -16 -7 -29 -20 -29 -28 0 -12 5 -10 20 7 19 22 22 22 36 8
15 -14 11 -23 -38 -99 -30 -46 -70 -109 -88 -139 -79 -127 -181 -280 -189
-280 -8 0 -105 128 -201 265 -58 83 -206 284 -219 298 -8 8 -184 -29 -281 -58
-25 -8 -130 -37 -235 -64 -104 -28 -230 -62 -280 -76 -49 -14 -101 -25 -115
-25 -24 1 -24 1 -6 15 11 8 15 15 8 15 -6 0 -9 6 -6 14 3 8 1 17 -5 21 -6 3
-11 -1 -11 -9 0 -22 -20 -20 -20 2 -1 16 -2 16 -15 -2 -11 -14 -24 -17 -63
-15 -28 2 -48 1 -46 -3 2 -4 0 -9 -6 -13 -5 -3 -10 -1 -10 5 0 7 -6 10 -12 7
-7 -2 -11 -14 -10 -27 3 -17 0 -21 -12 -17 -8 3 -18 2 -20 -2 -3 -5 -24 -11
-46 -15 -22 -3 -40 -11 -40 -16 0 -6 -9 -10 -20 -10 -11 0 -20 -7 -20 -15 0
-8 -7 -15 -15 -15 -8 0 -15 -8 -15 -17 0 -15 -2 -16 -10 -3 -8 13 -10 12 -10
-2 0 -32 -17 -19 -45 35 -54 104 -27 231 66 311 24 20 59 41 78 46 49 13 125
13 174 -2 54 -16 128 -92 151 -154 10 -27 22 -53 26 -57 3 -4 123 167 266 380
142 213 264 394 271 401 7 8 18 22 23 33 12 22 32 26 24 5z m89 7 c-7 -2 -19
-2 -25 0 -7 3 -2 5 12 5 14 0 19 -2 13 -5z m84 -35 c-3 -8 -6 -5 -6 6 -1 11 2
17 5 13 3 -3 4 -12 1 -19z m113 -62 c0 -2 -9 -6 -20 -9 -11 -3 -20 -1 -20 4 0
5 9 9 20 9 11 0 20 -2 20 -4z m-1064 -193 c-11 -11 -17 4 -9 23 7 18 8 18 11
1 2 -10 1 -21 -2 -24z m21 -19 c-3 -3 -12 -4 -19 -1 -8 3 -5 6 6 6 11 1 17 -2
13 -5z m1330 -26 c-3 -8 -6 -5 -6 6 -1 11 2 17 5 13 3 -3 4 -12 1 -19z m-1252
2 c3 -5 1 -10 -4 -10 -6 0 -11 5 -11 10 0 6 2 10 4 10 3 0 8 -4 11 -10z m1292
-72 c-3 -8 -6 -5 -6 6 -1 11 2 17 5 13 3 -3 4 -12 1 -19z m210 -120 c-3 -8 -6
-5 -6 6 -1 11 2 17 5 13 3 -3 4 -12 1 -19z m1673 -748 c0 -5 -2 -10 -4 -10 -3
0 -8 5 -11 10 -3 6 -1 10 4 10 6 0 11 -4 11 -10z m240 -75 c0 -8 -4 -15 -10
-15 -5 0 -7 7 -4 15 4 8 8 15 10 15 2 0 4 -7 4 -15z m120 -5 c0 -5 -4 -10 -9
-10 -6 0 -13 5 -16 10 -3 6 1 10 9 10 9 0 16 -4 16 -10z m-185 -10 l20 -9 -20
0 c-11 0 -27 4 -35 9 -13 9 -13 10 0 9 8 0 24 -4 35 -9z m-4750 -535 c111 -29
214 -101 274 -192 17 -25 31 -49 31 -53 0 -8 -146 -90 -161 -90 -6 0 -33 24
-60 54 -69 76 -129 101 -244 101 -77 0 -98 -4 -145 -26 -259 -123 -260 -534
-3 -661 37 -18 69 -24 140 -26 81 -3 99 -1 145 20 53 25 110 72 141 118 l17
24 85 -42 c47 -23 85 -46 85 -50 0 -19 -60 -100 -104 -141 -133 -121 -385
-163 -561 -93 -260 103 -400 373 -341 653 41 190 204 357 392 403 80 19 236
20 309 1z m5713 -202 l3 -103 93 0 c107 0 106 1 106 -85 0 -86 1 -85 -106 -85
l-94 0 0 -177 c0 -159 2 -181 20 -210 23 -38 53 -48 118 -39 l48 6 22 -72 c20
-68 20 -74 5 -86 -46 -34 -187 -43 -266 -16 -28 9 -60 31 -81 55 -64 70 -69
91 -75 324 l-6 210 -60 5 -60 5 -3 83 -3 82 66 0 65 0 0 98 c0 54 3 102 7 106
4 4 50 5 103 4 l95 -3 3 -102z m1772 -113 c0 -97 3 -130 13 -130 6 -1 68 -2
137 -3 l125 -2 3 -102 3 -102 -138 -3 -138 -3 -3 -137 -3 -138 -104 0 -104 0
-3 138 -3 137 -133 3 -133 3 3 102 3 102 133 3 132 3 0 129 0 130 105 0 105 0
0 -130z m-6615 20 c174 -28 299 -156 327 -334 21 -135 -22 -257 -124 -351 -84
-78 -145 -100 -283 -100 -102 0 -115 2 -175 31 -259 122 -307 473 -91 665 89
80 211 111 346 89z m1067 -18 c24 -10 62 -38 85 -62 l42 -44 46 43 c87 80 198
107 315 77 81 -21 137 -66 175 -142 l30 -59 3 -282 3 -283 -100 0 -100 0 -3
243 c-3 269 -8 288 -71 328 -43 27 -144 23 -184 -8 -63 -47 -68 -65 -73 -328
l-5 -240 -100 0 -100 0 -5 245 c-6 272 -10 291 -73 331 -43 27 -144 23 -184
-7 -67 -51 -68 -52 -71 -314 -2 -185 -6 -241 -17 -250 -8 -7 -47 -10 -102 -8
l-88 3 0 380 0 380 89 3 c98 3 106 -1 106 -55 0 -40 9 -41 41 -7 73 79 232
105 341 56z m1502 -5 c252 -115 294 -503 74 -691 -60 -52 -133 -76 -226 -76
-86 0 -158 26 -201 74 -14 14 -28 26 -33 26 -4 0 -8 -75 -8 -167 0 -93 -4
-174 -8 -181 -6 -9 -34 -12 -103 -10 l-94 3 0 515 0 515 89 3 c98 3 106 -1
106 -55 0 -18 3 -33 7 -33 4 0 23 16 43 35 80 78 235 96 354 42z m871 6 c100
-32 186 -110 233 -211 24 -50 27 -69 27 -162 0 -99 -2 -110 -32 -171 -42 -84
-108 -151 -192 -192 -63 -30 -72 -32 -181 -32 -111 0 -117 1 -183 34 -134 67
-205 180 -215 338 -17 294 252 491 543 396z m840 1 c51 -18 119 -56 129 -73 9
-13 -61 -121 -78 -121 -8 0 -39 12 -71 26 -74 34 -169 43 -213 20 -27 -14 -32
-22 -32 -51 0 -44 20 -57 128 -85 185 -47 257 -91 286 -177 20 -58 20 -88 0
-145 -18 -55 -70 -109 -133 -139 -56 -28 -207 -37 -294 -19 -60 12 -186 70
-207 95 -9 11 -3 26 30 74 22 34 48 61 56 61 9 0 28 -8 42 -18 54 -37 109 -55
179 -60 110 -7 155 20 139 84 -8 30 -39 46 -147 72 -166 41 -236 87 -265 174
-37 113 20 235 131 278 86 33 229 35 320 4z m1390 0 c97 -26 166 -112 185
-231 6 -32 10 -163 10 -291 l0 -233 -92 3 c-91 3 -93 4 -96 28 -6 53 -11 55
-45 23 -61 -58 -92 -68 -207 -68 -89 0 -111 3 -145 22 -83 44 -125 114 -125
205 1 145 92 212 349 252 137 22 158 35 141 81 -18 47 -47 60 -139 60 -76 0
-94 -4 -155 -32 -37 -18 -72 -33 -76 -33 -14 0 -82 119 -75 130 9 14 100 61
150 78 93 30 223 33 320 6z m-2126 -1566 c1 -139 6 -257 10 -261 5 -5 321 -7
702 -4 660 3 698 5 784 24 50 12 110 28 133 37 60 22 188 99 242 146 25 22 46
35 48 31 4 -12 -265 -549 -409 -817 -154 -288 -191 -339 -325 -450 -86 -71
-263 -153 -272 -125 -5 14 -32 15 -32 1 0 -5 5 -10 12 -10 6 0 9 -2 6 -5 -9
-10 -78 28 -78 42 0 7 -7 13 -15 13 -14 0 -10 -29 6 -40 4 -3 4 -12 -1 -20 -7
-10 -10 -11 -10 -2 0 6 -9 12 -21 12 -14 0 -19 5 -16 15 7 17 -8 29 -24 19 -8
-4 -7 -9 2 -15 11 -7 10 -9 -3 -9 -10 0 -18 -6 -19 -12 -1 -7 -4 -3 -7 9 -5
17 -11 20 -22 13 -12 -7 -12 -12 4 -29 19 -21 19 -21 -2 -21 -24 0 -26 8 -22
78 1 33 -2 42 -14 42 -19 0 -20 -13 -4 -40 7 -10 9 -22 6 -26 -9 -8 -30 14
-45 49 -12 26 -33 37 -33 17 0 -5 4 -10 9 -10 9 0 12 -7 30 -62 8 -23 6 -28
-8 -28 -10 0 -18 7 -18 15 0 8 -8 30 -18 49 -15 28 -22 33 -33 23 -11 -9 -17
-7 -27 6 -7 9 -20 17 -30 17 -16 0 -16 -2 -1 -24 9 -14 12 -27 7 -30 -10 -6
-25 10 -34 35 -8 23 -57 31 -58 10 0 -10 -2 -12 -6 -3 -2 6 -9 12 -14 12 -6 0
-7 -5 -4 -10 4 -6 4 -18 1 -27 -5 -12 -9 -13 -21 -3 -12 10 -15 7 -21 -15 -9
-36 -17 -24 -9 14 4 17 10 29 15 26 5 -3 11 -1 15 5 8 13 -11 13 -34 -1 -13
-9 -23 -9 -37 -1 -18 11 -18 11 3 12 16 0 21 4 16 16 -4 10 -9 12 -16 5 -5 -5
-15 -7 -23 -4 -19 7 -31 -46 -13 -58 11 -7 10 -9 -3 -9 -11 0 -18 8 -18 20 0
11 -7 20 -15 20 -8 0 -15 -4 -15 -10 0 -5 -7 -10 -15 -10 -9 0 -12 6 -9 15 5
11 -3 17 -25 21 -30 6 -36 17 -33 58 2 13 -2 16 -15 12 -9 -4 -20 -1 -24 6 -4
7 -11 9 -15 6 -3 -4 1 -14 10 -23 22 -22 20 -25 -10 -25 -17 0 -28 6 -31 20
-3 11 -10 20 -17 20 -18 1 55 30 75 30 11 0 19 4 19 9 0 15 -18 23 -25 11 -3
-5 -24 -14 -45 -20 -22 -6 -40 -16 -40 -22 0 -6 -7 -5 -17 3 -15 12 -16 12
-11 -2 5 -13 2 -16 -14 -11 -18 4 -20 2 -15 -18 6 -22 5 -22 -11 -6 -16 16
-16 18 1 27 21 12 23 44 3 36 -8 -3 -17 -3 -19 1 -2 4 -2 1 -1 -6 4 -16 -36
-63 -48 -56 -5 3 -7 12 -4 19 3 8 -2 19 -10 25 -12 10 -14 8 -14 -14 0 -15 -6
-26 -14 -26 -8 0 -13 11 -13 28 -1 59 -7 102 -15 102 -4 0 -8 -6 -9 -12 -1 -7
-2 -22 -3 -32 -1 -20 -26 -36 -26 -17 0 6 -7 11 -15 11 -8 0 -15 -4 -15 -10 0
-5 5 -10 10 -10 6 0 10 -7 10 -15 0 -8 -4 -15 -10 -15 -5 0 -10 5 -10 10 0 6
-4 10 -10 10 -5 0 -10 -7 -10 -15 0 -21 -20 -19 -21 3 -1 15 -2 15 -6 -1 -4
-15 -11 -18 -31 -12 -38 10 -105 6 -113 -6 -3 -5 -10 -9 -15 -8 -22 4 -44 -2
-44 -12 0 -6 8 -8 19 -4 18 5 39 -21 26 -33 -3 -3 -5 0 -5 7 0 6 -6 11 -12 10
-27 -3 -36 2 -41 21 -4 16 0 20 19 20 21 0 24 5 24 38 0 32 5 41 28 52 15 7
22 15 15 17 -7 2 -24 -4 -38 -14 -20 -14 -25 -25 -22 -51 2 -20 -1 -31 -7 -28
-6 2 -10 9 -8 15 4 18 -29 26 -40 10 -7 -10 -8 -8 -5 10 6 25 -11 71 -26 71
-5 0 -7 9 -4 20 3 13 0 20 -10 20 -8 0 -11 -4 -8 -10 3 -5 -1 -10 -9 -10 -18
0 -22 25 -5 35 11 8 -34 35 -57 35 -23 0 -16 -18 8 -22 38 -5 31 -26 -10 -30
-32 -3 -38 0 -35 13 3 12 -1 17 -14 16 -14 -2 -18 4 -16 28 2 23 0 25 -5 11
-7 -17 -13 -13 -48 30 -21 27 -43 52 -49 56 -6 5 -4 8 5 8 9 0 5 5 -9 13 -13
6 -33 24 -44 39 l-20 27 40 53 c23 29 49 62 60 73 10 11 34 41 53 66 19 25 54
67 76 95 23 27 77 91 120 143 44 51 90 108 104 125 14 18 46 57 72 87 59 68
195 235 296 361 42 54 82 98 88 98 8 0 12 -73 13 -252z m-2402 66 c12 -7 48
-45 80 -83 32 -38 61 -70 65 -70 3 -1 22 15 41 34 19 19 44 35 55 35 34 0 79
-47 131 -138 53 -92 131 -255 131 -272 0 -15 26 -12 40 5 7 8 18 15 24 15 17
0 236 -269 236 -289 0 -6 6 -11 14 -11 23 0 198 -225 251 -323 24 -44 29 -48
54 -42 25 5 34 0 74 -47 52 -61 108 -160 131 -234 13 -39 25 -57 54 -75 45
-29 72 -80 72 -136 0 -24 2 -43 4 -43 2 0 25 9 51 20 56 24 86 25 125 5 56
-29 76 -108 45 -181 -20 -48 -80 -119 -121 -143 -44 -26 -141 -54 -160 -47
-20 8 -18 20 11 54 14 17 25 36 25 43 -1 11 -3 11 -13 -1 -40 -47 -105 -100
-118 -95 -8 3 -14 19 -15 35 -1 37 -10 48 -26 32 -7 -7 -8 -12 -2 -12 6 0 11
-14 11 -31 0 -26 -3 -30 -21 -25 -12 3 -27 6 -33 6 -7 0 -13 10 -13 21 0 18
-4 21 -27 16 -16 -3 -36 -9 -45 -12 -32 -13 -81 54 -107 144 -13 45 -28 84
-32 87 -8 5 -14 -64 -10 -113 1 -17 -2 -21 -15 -16 -9 3 -20 0 -25 -8 -7 -11
-12 -9 -25 9 -9 13 -21 21 -28 19 -10 -4 -22 17 -68 124 -17 37 -28 41 -75 25
-13 -4 -23 -14 -23 -22 0 -8 -4 -14 -10 -14 -5 0 -10 7 -10 15 0 8 -4 15 -10
15 -5 0 -10 -8 -10 -17 0 -9 -3 -13 -7 -9 -5 4 -8 13 -8 19 0 12 -40 18 -62
10 -23 -9 -14 -20 65 -80 99 -77 245 -153 293 -153 11 0 19 -4 19 -10 0 -15
72 -42 98 -35 14 3 24 0 28 -9 3 -7 25 -21 50 -31 24 -9 44 -21 44 -26 0 -5
12 -9 26 -9 14 0 23 -4 19 -10 -3 -6 -17 -7 -30 -4 -28 7 -43 -12 -15 -21 20
-6 28 -35 10 -35 -20 0 -10 -28 13 -34 l22 -7 -25 -10 c-16 -7 -113 -9 -265
-6 -253 4 -286 9 -443 67 -213 79 -411 238 -578 465 -41 55 -77 105 -81 110
-5 6 -23 33 -42 60 -19 28 -54 74 -79 103 -32 38 -43 59 -39 74 4 16 -9 38
-52 87 -32 36 -68 82 -82 101 -13 19 -27 40 -32 45 -79 94 -181 250 -173 264
3 5 31 12 62 16 82 10 87 13 69 38 -21 29 -19 54 5 69 11 7 20 16 20 19 0 4
-26 26 -57 49 -109 80 -146 161 -78 168 16 2 46 -2 67 -9 21 -7 40 -10 43 -8
2 3 -16 36 -42 74 -69 103 -123 217 -123 259 0 43 27 59 73 43 25 -8 128 -116
160 -168 18 -28 24 -24 31 23 23 143 122 49 201 -192 15 -47 29 -87 31 -89 2
-2 13 4 24 14 23 20 50 14 57 -15 6 -23 14 -25 31 -8 18 18 15 46 -8 70 -22
24 -50 80 -50 100 0 33 28 53 83 58 l56 5 -45 74 c-84 137 -104 216 -61 246
24 17 57 13 94 -11z m1713 -1174 c0 -5 -2 -10 -4 -10 -3 0 -8 5 -11 10 -3 6
-1 10 4 10 6 0 11 -4 11 -10z m50 -20 c0 -5 -2 -10 -4 -10 -3 0 -8 5 -11 10
-3 6 -1 10 4 10 6 0 11 -4 11 -10z m54 -51 c-6 -11 -24 -2 -24 11 0 5 7 7 15
4 8 -4 12 -10 9 -15z m331 -79 c-3 -5 -11 -10 -16 -10 -6 0 -7 5 -4 10 3 6 11
10 16 10 6 0 7 -4 4 -10z m-165 -21 c0 -5 -7 -9 -15 -9 -15 0 -20 12 -9 23 8
8 24 -1 24 -14z m64 13 c2 -4 -2 -16 -10 -27 -8 -10 -14 -14 -14 -8 0 6 -3 18
-6 27 -6 16 20 24 30 8z m44 -12 c-9 -14 -14 -16 -20 -7 -13 20 -9 27 12 27
18 0 19 -3 8 -20z m322 -33 c0 -5 -4 -5 -10 -2 -5 3 -10 14 -10 23 0 15 2 15
10 2 5 -8 10 -19 10 -23z m-250 19 c0 -2 -13 -6 -30 -8 -16 -3 -30 -1 -30 4 0
4 14 8 30 8 17 0 30 -2 30 -4z m356 -31 c24 -6 35 -34 27 -65 -9 -35 -23 -22
-23 22 0 40 0 41 -20 23 -18 -16 -20 -16 -20 -2 0 10 -4 17 -10 17 -5 0 -10 5
-10 11 0 6 8 8 18 5 9 -2 27 -7 38 -11z m-601 -5 c-3 -5 -12 -10 -18 -10 -7 0
-6 4 3 10 19 12 23 12 15 0z m78 3 c-7 -2 -19 -2 -25 0 -7 3 -2 5 12 5 14 0
19 -2 13 -5z m331 -2 c4 -5 -3 -7 -14 -4 -23 6 -26 13 -6 13 8 0 17 -4 20 -9z
m-229 -11 c-3 -5 -12 -7 -20 -3 -21 7 -19 13 6 13 11 0 18 -4 14 -10z m355 0
c0 -5 -7 -10 -15 -10 -8 0 -15 5 -15 10 0 6 7 10 15 10 8 0 15 -4 15 -10z
m-15 -30 c-3 -5 -13 -10 -21 -10 -8 0 -12 5 -9 10 3 6 13 10 21 10 8 0 12 -4
9 -10z m410 -8 c0 -18 -20 -15 -23 4 -3 10 1 15 10 12 7 -3 13 -10 13 -16z
m-43 -17 c3 -13 1 -22 -3 -19 -9 5 -13 44 -5 44 2 0 6 -11 8 -25z m154 -12
c-4 -4 -11 -1 -16 7 -16 25 -11 35 7 17 9 -9 13 -20 9 -24z m-517 -19 c2 -2
-5 -4 -16 -4 -12 0 -23 7 -27 15 -5 13 -2 14 17 4 12 -6 24 -13 26 -15z m89
-1 c-10 -2 -26 -2 -35 0 -10 3 -2 5 17 5 19 0 27 -2 18 -5z m-114 -28 c-4 -8
-8 -15 -10 -15 -2 0 -4 7 -4 15 0 8 4 15 10 15 5 0 7 -7 4 -15z m761 5 c3 -6
-4 -10 -17 -10 -18 0 -20 2 -8 10 19 12 18 12 25 0z m-855 -20 c0 -5 -5 -10
-11 -10 -5 0 -7 5 -4 10 3 6 8 10 11 10 2 0 4 -4 4 -10z m-40 -10 c0 -5 -8
-10 -17 -10 -15 0 -16 2 -3 10 19 12 20 12 20 0z"/>
<path d="M4626 9277 c3 -10 9 -15 12 -12 3 3 0 11 -7 18 -10 9 -11 8 -5 -6z"/>
<path d="M4500 9228 c0 -9 7 -19 16 -22 24 -9 24 -4 3 18 -16 16 -19 17 -19 4z"/>
<path d="M7120 7829 c0 -5 5 -7 10 -4 6 3 10 8 10 11 0 2 -4 4 -10 4 -5 0 -10
-5 -10 -11z"/>
<path d="M7965 7830 c-3 -5 -1 -10 4 -10 6 0 11 5 11 10 0 6 -2 10 -4 10 -3 0
-8 -4 -11 -10z"/>
<path d="M7478 7783 c7 -3 16 -2 19 1 4 3 -2 6 -13 5 -11 0 -14 -3 -6 -6z"/>
<path d="M7949 7773 c-13 -16 -12 -17 4 -4 9 7 17 15 17 17 0 8 -8 3 -21 -13z"/>
<path d="M7100 7760 c-9 -6 -10 -10 -3 -10 6 0 15 5 18 10 8 12 4 12 -15 0z"/>
<path d="M7300 7745 c0 -8 2 -15 4 -15 2 0 6 7 10 15 3 8 1 15 -4 15 -6 0 -10
-7 -10 -15z"/>
<path d="M7068 7723 c7 -3 16 -2 19 1 4 3 -2 6 -13 5 -11 0 -14 -3 -6 -6z"/>
<path d="M7115 7720 c-3 -6 1 -7 9 -4 18 7 21 14 7 14 -6 0 -13 -4 -16 -10z"/>
<path d="M7520 7710 c0 -5 5 -10 11 -10 5 0 7 5 4 10 -3 6 -8 10 -11 10 -2 0
-4 -4 -4 -10z"/>
<path d="M7820 7690 c0 -5 5 -10 10 -10 6 0 10 5 10 10 0 6 -4 10 -10 10 -5 0
-10 -4 -10 -10z"/>
<path d="M7916 7677 c3 -10 9 -15 12 -12 3 3 0 11 -7 18 -10 9 -11 8 -5 -6z"/>
<path d="M7375 7670 c-3 -5 -2 -10 4 -10 5 0 13 5 16 10 3 6 2 10 -4 10 -5 0
-13 -4 -16 -10z"/>
<path d="M7676 7666 c3 -9 12 -16 20 -16 8 0 14 -9 14 -20 0 -19 19 -27 33
-14 9 9 -24 55 -35 48 -5 -3 -16 0 -24 7 -12 10 -13 9 -8 -5z"/>
<path d="M7841 7634 c0 -11 3 -14 6 -6 3 7 2 16 -1 19 -3 4 -6 -2 -5 -13z"/>
<path d="M7875 7610 c-3 -5 -1 -10 4 -10 6 0 11 5 11 10 0 6 -2 10 -4 10 -3 0
-8 -4 -11 -10z"/>
<path d="M4344 8877 c3 -10 6 -25 6 -33 0 -8 5 -14 11 -14 12 0 2 40 -14 55
-7 7 -8 4 -3 -8z"/>
<path d="M4170 8740 c0 -5 5 -10 10 -10 6 0 10 5 10 10 0 6 -4 10 -10 10 -5 0
-10 -4 -10 -10z"/>
<path d="M5035 8860 c3 -5 8 -10 11 -10 2 0 4 5 4 10 0 6 -5 10 -11 10 -5 0
-7 -4 -4 -10z"/>
<path d="M5098 8823 c-10 -2 -18 -9 -18 -14 0 -14 16 -11 30 6 7 8 11 14 9 14
-2 -1 -12 -3 -21 -6z"/>
<path d="M5290 8690 c0 -5 14 -10 31 -10 17 0 28 4 24 10 -3 6 -17 10 -31 10
-13 0 -24 -4 -24 -10z"/>
<path d="M5308 8633 c6 -2 18 -2 25 0 6 3 1 5 -13 5 -14 0 -19 -2 -12 -5z"/>
<path d="M5430 8583 c0 -15 18 -35 27 -32 5 2 1 12 -9 22 -10 9 -18 14 -18 10z"/>
<path d="M5582 8468 c-16 -16 -15 -28 3 -28 8 0 15 -5 15 -11 0 -6 -8 -8 -17
-5 -15 5 -14 3 2 -9 18 -14 20 -14 27 6 9 23 2 59 -11 59 -4 0 -12 -5 -19 -12z"/>
<path d="M5520 8450 c0 -11 4 -20 8 -20 4 0 8 9 8 20 0 11 -4 20 -8 20 -4 0
-8 -9 -8 -20z"/>
<path d="M5760 8316 c0 -8 51 -13 56 -5 3 5 -9 9 -25 9 -17 0 -31 -2 -31 -4z"/>
<path d="M5920 8265 c0 -8 5 -15 10 -15 6 0 10 7 10 15 0 8 -4 15 -10 15 -5 0
-10 -7 -10 -15z"/>
<path d="M5930 8159 c0 -5 5 -7 10 -4 6 3 10 8 10 11 0 2 -4 4 -10 4 -5 0 -10
-5 -10 -11z"/>
<path d="M5900 8120 c-6 -11 -7 -20 -3 -20 5 0 14 9 21 20 7 11 8 20 2 20 -5
0 -14 -9 -20 -20z"/>
<path d="M4065 8040 c-3 -5 -1 -10 4 -10 6 0 11 5 11 10 0 6 -2 10 -4 10 -3 0
-8 -4 -11 -10z"/>
<path d="M3598 6568 c-51 -14 -112 -77 -128 -133 -16 -58 -9 -141 17 -191 56
-109 209 -137 305 -56 62 52 85 158 56 256 -17 56 -74 110 -131 124 -53 14
-68 14 -119 0z"/>
<path d="M6047 6570 c-83 -25 -140 -112 -140 -210 0 -157 131 -257 274 -209
139 47 179 272 67 376 -50 47 -131 64 -201 43z"/>
<path d="M6966 6565 c-150 -53 -180 -270 -52 -382 65 -58 175 -56 244 2 49 42
74 102 74 176 0 102 -52 178 -141 208 -44 14 -77 13 -125 -4z"/>
<path d="M9252 6309 c-105 -21 -147 -45 -157 -89 -21 -94 90 -140 202 -84 60
29 93 83 93 152 0 50 2 49 -138 21z"/>
<path d="M6480 4260 c0 -5 5 -10 11 -10 5 0 7 5 4 10 -3 6 -8 10 -11 10 -2 0
-4 -4 -4 -10z"/>
<path d="M6450 4230 c0 -5 5 -10 11 -10 5 0 7 5 4 10 -3 6 -8 10 -11 10 -2 0
-4 -4 -4 -10z"/>
<path d="M6487 4209 c7 -7 15 -10 18 -7 3 3 -2 9 -12 12 -14 6 -15 5 -6 -5z"/>
<path d="M6870 4155 c0 -5 5 -17 10 -25 5 -8 10 -10 10 -5 0 6 -5 17 -10 25
-5 8 -10 11 -10 5z"/>
<path d="M6830 4120 c0 -5 5 -10 10 -10 6 0 10 5 10 10 0 6 -4 10 -10 10 -5 0
-10 -4 -10 -10z"/>
<path d="M6698 4103 c7 -3 16 -2 19 1 4 3 -2 6 -13 5 -11 0 -14 -3 -6 -6z"/>
<path d="M6715 4053 c4 -10 8 -25 8 -33 0 -23 21 -32 28 -12 7 18 -17 62 -33
62 -6 0 -7 -8 -3 -17z"/>
<path d="M7110 4034 c1 -13 29 -48 34 -43 2 2 -4 15 -15 28 -10 13 -19 19 -19
15z"/>
<path d="M6940 4020 c0 -5 5 -10 10 -10 6 0 10 5 10 10 0 6 -4 10 -10 10 -5 0
-10 -4 -10 -10z"/>
<path d="M7285 4019 c-4 -6 -5 -12 -2 -15 2 -3 7 2 10 11 7 17 1 20 -8 4z"/>
<path d="M7325 4010 c-3 -5 -1 -10 4 -10 6 0 11 5 11 10 0 6 -2 10 -4 10 -3 0
-8 -4 -11 -10z"/>
<path d="M6848 4003 c7 -3 16 -2 19 1 4 3 -2 6 -13 5 -11 0 -14 -3 -6 -6z"/>
<path d="M6970 3994 c0 -8 5 -12 10 -9 6 3 10 10 10 16 0 5 -4 9 -10 9 -5 0
-10 -7 -10 -16z"/>
<path d="M6800 3954 c0 -14 4 -23 10 -19 6 3 10 15 10 26 0 10 -4 19 -10 19
-5 0 -10 -12 -10 -26z"/>
<path d="M7150 3965 c-10 -12 -10 -15 3 -15 8 0 17 7 21 15 3 8 2 15 -3 15 -5
0 -14 -7 -21 -15z"/>
<path d="M7265 3970 c3 -5 14 -10 23 -10 15 0 15 2 2 10 -20 13 -33 13 -25 0z"/>
<path d="M7410 3933 c0 -19 18 -25 37 -13 15 9 15 11 2 7 -9 -3 -22 0 -28 6
-8 8 -11 8 -11 0z"/>
<path d="M7517 3933 c-7 -11 10 -40 18 -31 4 4 3 14 -3 24 -5 9 -12 12 -15 7z"/>
<path d="M7618 3923 c6 -2 18 -2 25 0 6 3 1 5 -13 5 -14 0 -19 -2 -12 -5z"/>
<path d="M7473 3907 c-4 -7 -17 -17 -28 -22 -19 -8 -19 -9 3 -12 12 -3 22 -11
22 -19 0 -8 10 -14 25 -14 28 0 33 15 9 24 -10 4 -14 14 -11 26 6 24 -8 36
-20 17z"/>
<path d="M7600 3880 c0 -19 3 -21 12 -12 9 9 9 15 0 24 -9 9 -12 7 -12 -12z"/>
<path d="M7816 3873 c-4 -9 -2 -21 4 -27 7 -7 10 -2 10 17 0 31 -5 34 -14 10z"/>
<path d="M7955 3850 c-3 -5 1 -10 10 -10 9 0 13 5 10 10 -3 6 -8 10 -10 10 -2
0 -7 -4 -10 -10z"/>
<path d="M8255 3780 c-3 -5 -2 -10 4 -10 5 0 13 5 16 10 3 6 2 10 -4 10 -5 0
-13 -4 -16 -10z"/>
<path d="M8130 3770 c0 -5 6 -10 14 -10 8 0 18 5 21 10 3 6 -3 10 -14 10 -12
0 -21 -4 -21 -10z"/>
<path d="M5090 4686 c0 -21 20 -30 33 -17 9 9 8 14 -3 21 -21 14 -30 12 -30
-4z"/>
<path d="M5247 4605 c-29 -12 -28 -27 1 -18 13 3 13 1 -2 -11 -13 -11 -23 -13
-30 -6 -5 5 -19 9 -30 9 -17 -1 -18 -2 -3 -6 9 -2 17 -12 16 -21 0 -11 -2 -12
-6 -4 -2 6 -11 12 -19 12 -9 0 -12 -4 -9 -10 3 -5 1 -10 -5 -10 -6 0 -10 10
-8 22 2 11 -2 23 -9 25 -6 2 -13 -6 -15 -19 -3 -20 40 -96 82 -145 6 -7 26
-39 44 -70 30 -51 40 -60 79 -70 27 -8 63 -30 95 -58 l50 -45 11 50 c6 28 23
74 38 103 27 53 32 103 11 122 -8 7 -9 5 -5 -7 4 -10 2 -18 -3 -18 -6 0 -10
-7 -10 -17 0 -14 -3 -14 -22 3 -21 19 -21 19 -15 -5 4 -18 3 -21 -6 -12 -12
12 -31 15 -24 4 3 -5 -28 -9 -69 -9 l-74 -2 0 63 c0 35 4 74 8 87 5 13 6 36 3
52 -6 27 -7 28 -21 12 -12 -15 -15 -15 -20 -4 -4 12 -10 13 -33 3z m286 -220
c-3 -9 -8 -14 -10 -11 -3 3 -2 9 2 15 9 16 15 13 8 -4z"/>
<path d="M4760 4582 c0 -6 -11 -23 -26 -37 -18 -18 -31 -24 -49 -19 -18 4 -27
1 -31 -11 -5 -13 -9 -14 -16 -3 -7 10 -10 10 -19 -4 -5 -10 -22 -18 -37 -19
l-27 -1 25 -8 25 -8 -25 -1 c-24 -2 -24 -2 -5 -13 11 -6 51 -41 88 -77 38 -36
76 -69 86 -73 39 -14 201 -188 239 -255 16 -29 15 -34 -3 -27 -8 4 -15 1 -15
-6 0 -6 -8 -10 -17 -9 -35 3 -43 -1 -43 -23 -1 -21 -2 -22 -14 -5 -18 24 -28
22 -51 -13 -18 -27 -21 -29 -32 -13 -11 15 -13 15 -13 1 0 -9 -7 -19 -16 -22
-8 -3 -12 -10 -9 -16 3 -5 2 -10 -3 -10 -6 0 -13 7 -16 16 -3 8 -10 13 -15 9
-9 -5 54 -75 68 -75 3 0 23 -16 44 -36 l38 -36 24 22 c49 46 149 48 237 5 25
-13 49 -20 53 -17 4 4 5 3 4 -3 -4 -13 32 -55 46 -55 21 0 65 -25 61 -35 -2
-5 -9 -9 -15 -8 -17 4 -13 -4 18 -36 16 -17 34 -38 40 -48 9 -16 10 -16 11 5
0 12 8 30 18 40 9 10 25 34 34 54 9 20 30 46 46 58 23 17 28 27 24 52 -4 26
-7 29 -16 16 -25 -34 -116 -25 -116 12 0 7 -6 10 -13 7 -8 -3 -21 7 -31 24 -9
16 -22 29 -27 29 -6 0 -8 4 -5 8 2 4 1 14 -3 21 -6 9 -8 4 -8 -14 0 -15 -5
-30 -11 -34 -6 -3 -12 -22 -14 -41 -3 -32 -6 -35 -38 -38 -38 -4 -60 16 -60
53 0 12 -13 39 -29 61 -16 21 -41 67 -55 101 -22 53 -26 78 -27 165 0 57 2
115 6 129 4 17 0 38 -14 63 -12 20 -21 48 -21 62 0 14 -4 22 -10 19 -5 -3 -10
1 -10 9 0 9 -6 16 -14 16 -9 0 -12 -8 -8 -26 4 -24 3 -25 -34 -20 -34 5 -35 5
-10 -3 15 -6 36 -17 45 -25 10 -9 21 -13 26 -9 4 5 5 3 1 -4 -3 -6 -2 -14 4
-18 16 -10 12 -20 -19 -38 -16 -9 -49 -17 -73 -17 -33 0 -39 -3 -28 -11 13 -8
12 -10 -3 -7 -10 2 -17 6 -15 10 5 12 -41 40 -54 32 -6 -4 -8 -3 -4 4 3 5 0
12 -6 15 -10 3 -10 11 2 33 14 26 14 34 -3 84 -10 30 -20 63 -22 74 -5 22 -15
34 -15 18z m586 -879 c-10 -10 -19 5 -10 18 6 11 8 11 12 0 2 -7 1 -15 -2 -18z"/>
<path d="M4705 4550 c3 -5 8 -10 11 -10 2 0 4 5 4 10 0 6 -5 10 -11 10 -5 0
-7 -4 -4 -10z"/>
<path d="M5007 4513 c-4 -3 -7 -13 -7 -22 1 -13 3 -13 11 2 11 19 8 33 -4 20z"/>
<path d="M5585 4466 c-11 -9 -15 -16 -9 -16 5 0 15 5 22 12 6 6 15 8 19 3 5
-4 3 -10 -4 -12 -21 -8 -56 -43 -49 -50 4 -4 10 -2 14 4 4 6 25 22 46 37 21
14 32 26 23 26 -8 0 -21 2 -29 5 -7 3 -22 -1 -33 -9z"/>
<path d="M4640 4250 c0 -5 4 -10 9 -10 6 0 13 5 16 10 3 6 -1 10 -9 10 -9 0
-16 -4 -16 -10z"/>
<path d="M5880 4084 c0 -3 5 -14 10 -25 7 -13 7 -19 0 -19 -5 0 -10 5 -10 10
0 6 -4 10 -8 10 -10 0 20 -100 30 -100 8 0 22 55 22 91 1 17 -3 25 -11 22 -7
-3 -13 0 -13 6 0 6 -4 11 -10 11 -5 0 -10 -3 -10 -6z"/>
<path d="M5936 4064 c-10 -25 1 -29 14 -5 6 12 7 21 1 21 -5 0 -12 -7 -15 -16z"/>
<path d="M5727 4029 c-3 -12 -10 -18 -16 -14 -9 5 -13 -1 -13 -25 -1 -3 2 -20
5 -37 6 -28 4 -33 -14 -33 -25 0 -19 -10 31 -50 l40 -32 -10 27 c-6 15 -11 63
-12 106 0 44 -2 79 -3 79 -2 0 -5 -9 -8 -21z"/>
<path d="M6115 3320 c-3 -5 -1 -10 4 -10 6 0 11 5 11 10 0 6 -2 10 -4 10 -3 0
-8 -4 -11 -10z"/>
<path d="M5986 3291 c-4 -7 -5 -15 -2 -18 9 -9 19 4 14 18 -4 11 -6 11 -12 0z"/>
<path d="M6170 3273 c0 -15 18 -35 23 -27 3 5 -1 15 -9 22 -8 7 -14 9 -14 5z"/>
<path d="M5985 3130 c-4 -6 5 -10 19 -10 14 0 26 5 26 10 0 6 -9 10 -19 10
-11 0 -23 -4 -26 -10z"/>
<path d="M6040 3111 c0 -15 -32 -22 -47 -9 -11 9 -16 9 -23 -2 -10 -16 -3 -31
13 -29 30 4 47 -2 47 -16 0 -9 9 -15 23 -15 19 0 22 6 24 40 1 33 -2 40 -18
40 -10 0 -19 -4 -19 -9z"/>
</g>
</svg>
